<svg xmlns="http://www.w3.org/2000/svg" xmlns:xlink="http://www.w3.org/1999/xlink" viewBox="0 0 86.22705 87.132"><defs><clipPath id="clip-path" transform="translate(169.65276 -4.88737)"><circle cx="-126.53923" cy="48.45337" r="42.49999" style="fill:none"/></clipPath></defs><title>portrait</title><g style="isolation:isolate"><g id="Layer_2" data-name="Layer 2"><g style="clip-path:url(#clip-path)"><rect id="yellow_l" data-name="yellow l" x="0.17503" y="0.855" width="86" height="86" style="fill:#fbf49e"/><path d="M-158.108,76.39164c-0.32635-3.90845,1.43494-8.02136,5.27313-9.682a7.137,7.137,0,0,1,1.30774-1.02271,30.19951,30.19951,0,0,1,4.60272-2.14026,1.00817,1.00817,0,0,1,.66937-0.26965,29.30241,29.30241,0,0,0,3.16614-1.45831,33.85329,33.85329,0,0,0,6.91248-5.3819,1.11519,1.11519,0,0,1-.25641-0.65894c-0.26776-5.807-5.35364-11.89313-3.8623-17.91937a1.07072,1.07072,0,0,1-.2627-0.70563c-0.02838-6.11853-.54266-14.04175,5.25568-17.682a1.10943,1.10943,0,0,1,.603-0.3833c0.05823-.01569.10675-0.0448,0.16345-0.06256,0.04211-.02167.0769-0.04834,0.11963-0.06958a1.24817,1.24817,0,0,1,.35217-0.111c2.033-.89362,3.13385-3.08209,5.07349-4.13818,1.51251-.82349,2.22144-1.13074,2.84937-2.80182a12.49539,12.49539,0,0,0,.5885-3.16095,13.85063,13.85063,0,0,0-.08929-2.8125h-43.78387v86h86v-86H-123.3532c0.2995,3.49738.23309,7.547-2.55859,9.84625a8.81418,8.81418,0,0,1-1.59052.87939,10.56021,10.56021,0,0,0-2.67151,2.21643,9.09761,9.09761,0,0,1-3.34088,2.2652c-5.24414,2.86536-4.79938,9.7937-4.71448,15.13141a0.96188,0.96188,0,0,1,.46875,1.25659c-2.12866,5.77356,3.207,12.24481,3.638,17.96252a1.131,1.131,0,0,1,.37372,1.86609,39.03276,39.03276,0,0,1-8.15955,6.48364c-1.28668.706-2.649,1.32709-3.971,1.99884-0.13977.15076-.27881,0.30151-0.41858,0.45221,7.31171,1.94647,8.48859,11.89844,3.5423,16.43689,3.59125,3.40186,7.85321,5.97076,12.49231,6.31927,1.49432,0.11224,1.50159,2.452,0,2.33917-5.452-.40955-10.36993-3.38885-14.44238-7.33386a9.53083,9.53083,0,0,1-4.24512.93512M-123.20354,39.967a1.17572,1.17572,0,0,1,2.29742.31091,14.10961,14.10961,0,0,1-.21362,3.05481c-0.07172.67224-.035,1.3457-0.12988,2.00739a1.12273,1.12273,0,0,0,.79889.39319c1.49152,0.12585,1.49994,2.46576,0,2.33917A3.38969,3.38969,0,0,1-123.165,46.594a1.01338,1.01338,0,0,1-.50079-1.13184A9.82793,9.82793,0,0,1-123.20354,39.967Zm3.81842,12.78137c-0.19946,1.13275-.83643,2.2395-0.76605,3.40454,0.10107,1.6734-2.49872,1.662-2.59912,0-0.08655-1.43256.61591-2.71545,0.85895-4.09546a1.31061,1.31061,0,0,1,1.59857-.90771A1.33674,1.33674,0,0,1-119.38512,52.74833Zm3.38177,8.18237a20.7783,20.7783,0,0,1-2.367,2.58783,5.59554,5.59554,0,0,0-1.692,5.03815,14.42219,14.42219,0,0,1,.007,3.93494,9.56736,9.56736,0,0,1-.51758,1.51282,3.11334,3.11334,0,0,1,.4209,2.27576c-0.48029,2.52393-1.161,5.16235-.94159,7.74768,0.1275,1.50232-2.21283,1.48889-2.33923,0a31.25272,31.25272,0,0,1,.48-5.78369c0.00513-.05438.01727-0.11377,0.02679-0.1712a1.12181,1.12181,0,0,1-1.88177-.8576A14.88566,14.88566,0,0,1-124.141,72.592a1.221,1.221,0,0,1,1.73553-.69379,8.53776,8.53776,0,0,0,.08765-1.74878,1.06486,1.06486,0,0,1-.74-1.059c0.00311-4.76868,1.22455-7.46283,5.45428-9.75995C-116.64745,58.8112-115.29058,59.92185-116.00335,60.9307Zm1.99292-9.65442c-0.45062,1.43347-2.70813.81757-2.25562-.62183a14.38613,14.38613,0,0,0,.33319-4.43909,1.17032,1.17032,0,0,1,2.33923,0A16.427,16.427,0,0,1-114.01043,51.27628Zm1.93353-16.98883a1.31966,1.31966,0,0,1-1.761.2851c-0.015-.0025-0.03082.00146-0.04553-0.00183a2.72921,2.72921,0,0,1-1.2782-.65741,2.21928,2.21928,0,0,1-1.59149.04083c-1.72217-.59277-2.79285-2.66876-2.99982-4.36377a0.65253,0.65253,0,0,1,.5108-0.7652,4.85005,4.85005,0,0,1-.02258-0.87793c0.15942-2.03528,2.34546-2.5274,3.94073-1.72906a3.17917,3.17917,0,0,1,1.77362,1.78937,6.66145,6.66145,0,0,1,.49554.71594,11.55653,11.55653,0,0,1,1.01758,3.39691A2.47817,2.47817,0,0,1-112.07689,34.28745Z" transform="translate(169.65276 -4.88737)" style="fill:#fbef54"/><path d="M-169.47771,5.74235v86h86v-86h-86Zm72.68378,73.62982a41.68959,41.68959,0,0,1-28.57349,11.83551c-22.65393,0-39.42834-18.51532-40.409-40.409-0.45087-10.06592,4.8269-21.56482,11.83551-28.57349a41.6897,41.6897,0,0,1,28.57349-11.83551c22.654,0,39.42841,18.51532,40.40906,40.409C-84.50756,60.8646-89.78527,72.36356-96.79393,79.37217Z" transform="translate(169.65276 -4.88737)" style="fill:#705ea9"/><path d="M-168.62407,51.46537c-0.03436-.76709-0.02661-1.54388.002-2.32465-0.15485-1.21423-.27985-2.43665-0.33533-3.67535-0.46405-10.36011,4.968-22.19513,12.1814-29.40857A42.4425,42.4425,0,0,1-140.202,6.01933h-29.45081v86h33.44464C-154.75328,87.77946-167.75249,70.92466-168.62407,51.46537Z" transform="translate(169.65276 -4.88737)" style="fill:#cbc03d"/><path d="M-114.27581,6.01933C-98.50994,11.366-87.5139,26.13474-85.93,43.269a46.24843,46.24843,0,0,1,.4859,4.863c0.04211,0.94031.01965,1.89532-.03229,2.85535,0.00879,0.15979.02509,0.31787,0.03229,0.478,0.46405,10.36-4.968,22.19507-12.1814,29.40857a42.92615,42.92615,0,0,1-20.5437,11.14539h34.51642v-86h-30.623Z" transform="translate(169.65276 -4.88737)" style="fill:#cbc03d"/><path d="M-123.9066,8.8809c0.06848-.00037.13745-0.00555,0.20587-0.00555,19.35156,0,34.52417,13.13147,39.705,30.47839V4.88737h-41.105A4.62963,4.62963,0,0,1-123.9,8.132Q-123.89977,8.50956-123.9066,8.8809Z" transform="translate(169.65276 -4.88737)" style="fill:#4a3b97"/><g style="mix-blend-mode:luminosity"><path d="M-109.25463,39.49038l-0.03593.90315c-0.13519.35068-.25932,0.7057-0.41334,1.04959a0.58138,0.58138,0,0,1-.37634.30275,0.67653,0.67653,0,0,1-.61556-0.29317c-0.95093-1.1117-.95243-1.11042-2.29372-0.37276a2.54943,2.54943,0,0,1-.76994.33141,4.804,4.804,0,0,0-2.21881,1.36218,5.83273,5.83273,0,0,0-.74074.59052c-0.45472.41208-.94674,0.8556-1.52949,0.2677-0.48641-.4907-1.09762-1.02478-0.45923-1.82455,0.339-.42467.16217-0.70056-0.28772-0.73041a1.626,1.626,0,0,1-1.565-1.48095,3.30094,3.30094,0,0,1-.52829-1.10074c-0.45554-.998-0.81349-1.07956-1.49056-0.315a4.9647,4.9647,0,0,0-.91286,1.39458c-1.226,3.029-3.48734,4.18852-6.65667,3.76377-1.82842-.51683-3.65173-1.04426-4.77044-2.78013a6.81765,6.81765,0,0,1-.86749-2.07724c0.00526-.24586-0.03334-0.494-0.01005-0.58384,0.01427,0.1477-.0186.45167,0.01836,0.75824a4.21841,4.21841,0,0,1,.19374,1.27065,8.00382,8.00382,0,0,0,.11372,2.08011,10.50462,10.50462,0,0,0,.72017,2.47651c0.44475,1.18092,1.10566,2.31609.303,3.64034a1.06109,1.06109,0,0,0,.381,1.397,1.97321,1.97321,0,0,1,.87392,2.59579c1.75331-1.02083,3.01073.16541,4.389,0.651a1.39856,1.39856,0,0,1,.6606.96331,15.68686,15.68686,0,0,0,2.16784,3.70424,1.89485,1.89485,0,0,0,1.81354.91005,4.93915,4.93915,0,0,1,.59833.00408c1.14635,0.05047,1.90936.60069,1.92881,1.38832a1.75713,1.75713,0,0,1-1.84094,1.37374,6.31709,6.31709,0,0,1-1.78908-.06972,22.04756,22.04756,0,0,1-7.10751-3.35718,1.994,1.994,0,0,1-.31682-0.415c-0.59575-1.23257-1.49539-2.29-2.05792-3.54254a0.9704,0.9704,0,0,0-.24566-0.55523c-0.6561-2.12277-1.69981-4.15941-1.44118-6.48545-0.55222-1.28187-.54994-2.7187-1.131-3.99835a2.008,2.008,0,0,1-.02387-1.41328,9.80566,9.80566,0,0,0,.19439-3.88533c-0.0842-.99731-0.96932-1.55683-1.03635-2.49665,0.068-2.88109-.13793-5.764.10868-8.64117,0.3775-1.63643,1.36143-3.01429,1.95086-4.561a0.994,0.994,0,0,1,.3533-0.47286c1.6762-1.04468,2.57348-2.90428,4.29306-3.96066a9.37212,9.37212,0,0,0,2.29869-2.6767,1.04782,1.04782,0,0,1,1.16777-.55086c2.00637,0.467,4.0378.15092,6.05585,0.21992a2.55839,2.55839,0,0,1,2.16571,1.14918c0.14652,0.89573.24277,1.798,0.46177,2.6842a2.26017,2.26017,0,0,1-.21522,1.51389,1.815,1.815,0,0,0-.35358.74706c0.15412,1.609-.9875,2.32959-2.07068,3.06825-1.46625.99988-2.34962,2.58164-3.78019,3.63684a9.82129,9.82129,0,0,1-4.60034,1.84355c-0.79323.11016-1.42178,0.0302-1.55346-.97564-0.10587-.80868-0.59088-0.47618-0.9108-0.16994a3.63854,3.63854,0,0,0-.83735,2.42287,2.33162,2.33162,0,0,0,.242,1.55238,1.62371,1.62371,0,0,0,1.15454.1995c1.55425-.0312,3.1093.0229,4.66242-0.0228a7.7087,7.7087,0,0,1,4.44,1.13933,6.223,6.223,0,0,0,3.44181.81221c0.99615-.01378,1.99267-0.00275,2.9892-0.00694a7.9667,7.9667,0,0,1,2.70931.22429,3.1733,3.1733,0,0,0,.75352.34086,1.956,1.956,0,0,1,1.44371,2.07068,2.45276,2.45276,0,0,0,.12553,1.3347,1.2067,1.2067,0,0,0,.67075-1.24427c0.12528-.98241.82344-1.033,1.58013-1.01764a1.14736,1.14736,0,0,1,1.219,1.1635A4.71847,4.71847,0,0,1-109.25463,39.49038Z" transform="translate(169.65276 -4.88737)" style="fill:#201f20"/><path d="M-121.7237,61.56583c-1.09888,1.44032-.69317,3.11978-0.74862,4.72534a0.59442,0.59442,0,0,0,.37916.682c1.255,0.181,1.16437,1.28774,1.41422,2.08816a4.2632,4.2632,0,0,1-.15819,2.817,1.35,1.35,0,0,1-.8256.64577,2.27483,2.27483,0,0,0-.96405.87247c-0.15829.26783-.51739,0.59393-0.00073,0.90261,0.40487,0.2419.606,0.07066,0.88488-.25476,0.65342-.76242,1.2894-1.63495,2.73307-1.36626-0.91366,1.18939-1.36009,2.52379-2.50851,3.37646a2.5129,2.5129,0,0,0-.36173.27421c0.7888,1.48936-.84951,2.59641-0.6213,4.014a10.92319,10.92319,0,0,0,.246,2.00422c0.08463,0.23939-.10091.652,0.29161,0.68025a0.6955,0.6955,0,0,0,.653-0.60684c0.36846-1.49642,1.51045-2.61534,1.96526-4.06777a0.98255,0.98255,0,0,1,.22382-0.27341c0.41629,0.34622.23182,0.94736,0.56811,1.32754a3.8987,3.8987,0,0,0,1.79815,1.83745,1.454,1.454,0,0,1,.83682,1.563,13.94724,13.94724,0,0,1-1.10139,4.7232,5.08372,5.08372,0,0,0-.1672,4.23855c-1.50712-.01018-2.0199-0.55738-2.2597-2.50548-0.82163,1.01091-1.0178,3.05906-3.04916,1.816a1.84108,1.84108,0,0,0,1.55084-1.97687,4.04168,4.04168,0,0,1,.46867-1.34346,6.32147,6.32147,0,0,0,.49406-1.95774,1.14934,1.14934,0,0,0-.70312-1.26365c-0.57521-.16028-0.62457.47222-0.81586,0.8332-0.40438.76308-.66419,1.64979-1.70748,1.81913a0.55938,0.55938,0,0,0-.40526.64483,15.01771,15.01771,0,0,1-.77684,2.73683c-1.986-.0838-3.69906-1.08027-5.53793-1.65606a1.30643,1.30643,0,0,1,.29669-0.64242c1.10976-1.6623,1.12576-2.137.00312-3.74582a19.99116,19.99116,0,0,0-1.96911-2.558c-0.7633-.78724-0.6906-1.00671.28084-1.43405,1.97054-.86682,2.13947-1.19747,1.42215-3.16854a1.51833,1.51833,0,0,1,.41469-1.83886,7.669,7.669,0,0,1,3.20151-2.02971c1.28544-.35757,2.43754-0.80832,2.38486-2.48772a1.35807,1.35807,0,0,1,.89462-1.0493,0.72282,0.72282,0,0,0,.48344-0.74893,0.76931,0.76931,0,0,0-.79262-0.60788,14.62,14.62,0,0,0-3.91025-.2485c-1.42817.24972-2.793-.52484-4.15218-0.97912a2.723,2.723,0,0,0-1.24991-.36963c-1.09125.18166-1.51514-.446-1.77777-1.33372a5.46018,5.46018,0,0,1-.00463-4.084,1.2457,1.2457,0,0,0-.82128-1.8028,3.54919,3.54919,0,0,0-2.57673-.02012,1.378,1.378,0,0,1-1.46694.09675,5.07335,5.07335,0,0,1,2.22164-.98355,3.77956,3.77956,0,0,0,2.109-1.19016c1.4459,0.87517,2.614,1.93309,2.44908,3.83178a1.31422,1.31422,0,0,0,1.06275,1.60457,0.63242,0.63242,0,0,1,.40088.25013c0.78154,1.43129,2.21366,1.16,3.47282,1.35444a1.73643,1.73643,0,0,0,1.55731-.718,9.49659,9.49659,0,0,1,2.70266-2.152A1.66123,1.66123,0,0,1-121.7237,61.56583Z" transform="translate(169.65276 -4.88737)" style="fill:#b5b4b4"/><path d="M-144.30227,79.76662l-1.71541-1.65678a4.914,4.914,0,0,1-.248-2.88146c0.29595-2.09888,1.48306-3.95879,1.8296-5.99315,0.59384-3.48626,3.09464-5.41469,5.41969-7.55023a3.63332,3.63332,0,0,1,1.84437-.8033,1.26252,1.26252,0,0,1,1.502.40813,1.51914,1.51914,0,0,1-.01755,1.69686c-0.24818.40962-.54989,0.78354-0.81142,1.18467-0.71706,1.09982-.73217,1.47274.28311,2.20548a16.55868,16.55868,0,0,0,3.91444,2.275,3.84825,3.84825,0,0,1,2.53234,1.83048,1.63811,1.63811,0,0,0,1.48591.60255,2.4661,2.4661,0,0,1,2.15736,1.27581,0.8309,0.8309,0,0,1-.18364,1.25075c-2.30844.94868-4.78968,1.529-6.77358,3.17164a4.25487,4.25487,0,0,1-1.85221.79187,1.06043,1.06043,0,0,0-1.03811.82809,1.5108,1.5108,0,0,0,.558,1.37935,4.85511,4.85511,0,0,0,1.05427.55277,0.88914,0.88914,0,0,1,.34882,1.32746,0.68785,0.68785,0,0,1-1.11425.235,3.9798,3.9798,0,0,0-3.55953-.32932,1.95247,1.95247,0,0,1-1.6169-.17326,2.21342,2.21342,0,0,0-1.41757-.56548A3.588,3.588,0,0,1-144.30227,79.76662Z" transform="translate(169.65276 -4.88737)" style="fill:#505050"/><path d="M-117.187,91.769c-1.28794-.69784-0.7654-1.86907-0.59026-2.80814,0.30934-1.65858,1.16822-3.17326,1.43007-4.86838,0.185-1.19776.52188-2.3182-1.1146-2.8677a2.9253,2.9253,0,0,1-1.39478-1.68887,1.65534,1.65534,0,0,1-.04-1.47932c0.81181-1.4976.84727-3.16956,1.20683-4.76771a59.21275,59.21275,0,0,0,2.91479-7.40174c1.106-.34573,1.01593.6933,1.38721,1.19818l-0.00919.0018c0.26774,1.192.40865,2.408,0.68209,3.59868a1.9505,1.9505,0,0,1,.1017.37715,22.2014,22.2014,0,0,0,.18827,2.70092c0.07592,0.39615.205,0.77857,0.29461,1.17168,0.223,2.10828-.084,4.21683.00826,6.3243a7.78751,7.78751,0,0,0,.19521,1.172,40.64473,40.64473,0,0,0,.74695,7.2238c0.32235,1.45011-.57978,2.35248-2.07465,2.34636A14.92364,14.92364,0,0,1-117.187,91.769Z" transform="translate(169.65276 -4.88737)" style="fill:#727272"/><path d="M-126.32481,73.51069c0.4028-.968-0.2305-1.49294-0.921-1.86146a9.28839,9.28839,0,0,0-1.50336-.29648c-0.60149-.19148-1.3483-0.02562-1.51795-1.11587-0.11169-.7178-1.16176-0.9787-1.9154-1.24617a15.05914,15.05914,0,0,1-4.855-2.92447,0.90294,0.90294,0,0,1-.16376-1.42668c0.43309-.56889.81372-1.178,1.25283-1.74192a1.23725,1.23725,0,0,0,.0935-1.44982c-0.30006-.57709-0.78049-0.34435-1.25493-0.286a5.08084,5.08084,0,0,0-2.74557,1.571,32.45431,32.45431,0,0,0-3.692,4.2103c-0.64118.81974-.137,2.04513-0.72032,2.95573-0.03959.06179-.0094,0.16673-0.04628,0.23205a21.16093,21.16093,0,0,0-1.64815,4.87624c-0.5873-.593-0.23018-1.35214-0.365-2.04207-0.2949-.13-0.60349.14236-0.9092,0.00537a0.65461,0.65461,0,0,1-.42011-0.58558,0.58227,0.58227,0,0,1,.03775-0.35091,7.99668,7.99668,0,0,0,1.32189-5.54856,2.48332,2.48332,0,0,1,.92663-1.99833,9.93584,9.93584,0,0,0,2.24179-2.7241c1.42772-.34667,2.53544-1.34365,3.86023-1.89952,0.72253-.20222,1.45019-0.38791,2.16622-0.61092a3.17989,3.17989,0,0,1,2.40913.40928,1.4074,1.4074,0,0,1,.532,2.16619c-0.60288.9175-.2885,4.045,0.48973,4.7994a0.42751,0.42751,0,0,0,.30374.14736c1.55823-.5342,2.67676.76706,4.06711,0.98452a7.95281,7.95281,0,0,0,3.13394.14087c1.14343-.25547,2.301.44613,3.50424,0.45431a1.00554,1.00554,0,0,1,.64254.93048,0.62912,0.62912,0,0,1-.53031.80011,1.539,1.539,0,0,0-1.14863,1.81524c0.06582,0.93422-.95678,1.60527-2.61652,1.863a0.13368,0.13368,0,0,1-.09-0.16521A0.11635,0.11635,0,0,1-126.32481,73.51069Z" transform="translate(169.65276 -4.88737)" style="fill:#868686"/><path d="M-126.32481,73.51069l0.00973,0.25276a9.51581,9.51581,0,0,0-2.96541,1.9372,1.02209,1.02209,0,0,0-.442,1.34357c1.26283,2.61829.32729,3.13229-1.82506,3.88993-0.111.03907-.22152,0.07942-0.49591,0.17792a17.961,17.961,0,0,1,2.86252,3.517c1.26243,1.87632.88345,2.79921-.74774,4.28663a1.55451,1.55451,0,0,1-1.19846-.49,4.78,4.78,0,0,1,.675-0.82754,1.69045,1.69045,0,0,0-.29635-2.511,1.85915,1.85915,0,0,0-2.59132.62506,3.08721,3.08721,0,0,1-.658,1.11483c-1.44244-.08511-1.07848-1.28839-1.35815-2.21676-0.22446.67519-.33466,1.45317-1.29529,1.18547-0.78967-.16349-1.18091-0.93861-1.88754-1.22958-0.53373-1.06535-1.4947-1.87379-1.83773-3.05467a0.53484,0.53484,0,0,1,.14631-0.30735A2.55,2.55,0,0,0-138.273,81.166a3.2459,3.2459,0,0,1,3.16172.4306c0.18923,0.157.48826,0.41956,0.73593,0.18282a1.21823,1.21823,0,0,0,.29211-0.75582c0.02563-.415-0.31732-0.50125-0.65333-0.52767a1.88831,1.88831,0,0,1-1.50284-1.21784,1.26793,1.26793,0,0,1,.9478-1.90359c1.42709-.188,2.35947-1.24146,3.53635-1.86219A20.59146,20.59146,0,0,1-126.32481,73.51069Z" transform="translate(169.65276 -4.88737)" style="fill:#868686"/><path d="M-147.179,72.84005l1.07284-.366a17.552,17.552,0,0,1,.14381,2.533q-0.02759,1.55145-.05536,3.10277a14.01236,14.01236,0,0,1-3.06712-3.76154c-1.07819-1.56877-2.33288-3.01114-3.27726-4.67787-0.77358-1.3653-.53628-2.34708.68013-3.3945a5.74978,5.74978,0,0,1,3.75865-1.72842c1.091-.03526,1.94147-1.16387,2.93539-1.7466a5.86507,5.86507,0,0,1,1.85945-1.0379,3.05783,3.05783,0,0,1-1.466,2.4069,2.81312,2.81312,0,0,0-1.40178,2.81874,7.09728,7.09728,0,0,1-1.45552,5.332C-147.54273,72.58928-147.77257,72.93089-147.179,72.84005Z" transform="translate(169.65276 -4.88737)" style="fill:#b5b5b5"/><path d="M-134.22827,30.10049c0.21964-1.15033.23338-2.39533,1.5092-3.0301,0.501-.24925.96221-0.45444,0.8707,0.40794-0.12808,1.207.43994,1.24967,1.43425,1.09715a9.74071,9.74071,0,0,0,6.48432-4.05362,10.66346,10.66346,0,0,1,2.66912-2.17952,1.23215,1.23215,0,0,0,.71333-1.244,2.0295,2.0295,0,0,1,.39687-1.4534,2.1633,2.1633,0,0,0,.1305-2.17255,2.487,2.487,0,0,1-.01682-2.07451,15.27747,15.27747,0,0,1,4.05063,1.77292,1.22093,1.22093,0,0,1,1.39031,1.17966,18.79359,18.79359,0,0,0,1.65673,1.81175c0.44819,0.55181,1.041.06483,1.4985,0.339a1.53564,1.53564,0,0,1,.55239.91232,1.77734,1.77734,0,0,1-2.20828-.07825c-0.78974-.47113-1.53591-1.01176-2.30429-1.51722a3.40274,3.40274,0,0,0-.93969-0.52334c-0.54945-.14845-1.25-0.28082-1.47987.32213-0.19626.51474,0.50373,0.7162,0.88133,0.97588a8.24439,8.24439,0,0,0,1.22188.48668,1.2236,1.2236,0,0,1,1.01358,1.28691,0.49506,0.49506,0,0,1-.27808.21689,1.61826,1.61826,0,0,1-1.03826-.20362c-1.22215-.573-2.35341-1.394-3.78278-1.39127-0.426.42107-.13747,1.12078-0.59589,1.52627a2.4895,2.4895,0,0,1-.79738.62219,13.75338,13.75338,0,0,0-2.94385,3.5146,5.66305,5.66305,0,0,1-1.61532,2.14787,0.65444,0.65444,0,0,0-.31688.90968c0.48372,0.997.8901,2.0923,2.111,2.417,0.88558,0.23549,1.53411,1.03708,2.51972,1.00348,0.93908,0.09061,1.87188.20978,2.81346,0.27121a1.63906,1.63906,0,0,1,1.70923.74152c-1.9781.00073-3.968,0.25919-5.90492-.43245-0.90215-.32214-1.57984-1.05491-2.56165-1.2327-2.53191-.45848-5.08038-0.09817-7.61682-0.22789-0.40235-.02058-0.88744.24175-1.19768-0.25207a11.847,11.847,0,0,0,3.92395-2.13453C-131.731,29.68565-132.99529,28.9182-134.22827,30.10049Z" transform="translate(169.65276 -4.88737)" style="fill:#595958"/><path d="M-121.7237,61.56582a8.10192,8.10192,0,0,0-4.10416,2.7367,1.75813,1.75813,0,0,1-2.19255.658,4.46865,4.46865,0,0,0-1.54173-.061,0.89324,0.89324,0,0,1-.92073-0.39693,2.2778,2.2778,0,0,0-1.82906-1.34926c-0.43479-.03643-0.4788-0.46843-0.481-0.84471a9.12487,9.12487,0,0,0-.0305-1.55135c-0.13734-.75992-0.20068-1.59245-1.17575-1.87807-0.55281-.16193-0.53915-0.85723-0.93846-1.18941q-0.02745-2.25937-.055-4.51874a0.47448,0.47448,0,0,1,.26334.45576,14.12084,14.12084,0,0,0,2.19935,3.561l0.23973,0.2572a3.11,3.11,0,0,0,1.52943,1.28417,23.36655,23.36655,0,0,0,5.39641,2.19347,3.608,3.608,0,0,1,.535.06559,7.87866,7.87866,0,0,0,1.8406.04816,3.971,3.971,0,0,1,2.64883-.30082,0.25064,0.25064,0,0,1,.03521.35184Z" transform="translate(169.65276 -4.88737)" style="fill:#858585"/><path d="M-111.6902,49.548a16.23579,16.23579,0,0,1-3.57918,7.19252,6.83769,6.83769,0,0,0-1.4817,1.494c-0.79759.91365-1.54978,1.91783-2.8771,2.12684-0.232-.60466.76957-1.054,0.26544-1.63126-0.395-.45229-1.05866-0.18994-1.58788-0.32852a1.7893,1.7893,0,0,1-.95471-0.66739,11.27956,11.27956,0,0,0-2.37757-2.31068c-0.56653-.39007-0.64293-0.85657.001-1.18222,0.9225-.4665,1.70629-1.14433,2.62308-1.61332a0.75728,0.75728,0,0,1,.37064.94706,1.39584,1.39584,0,0,1-.351.63732,0.73138,0.73138,0,0,0-.16317.17064,2.66241,2.66241,0,0,0,1.46131,2.41924,1.73063,1.73063,0,0,0,2.04959-1.2071c0.17585-1.488,1.21763-1.99267,2.39211-2.331a2.09951,2.09951,0,0,0,1.5335-1.33315c0.38766-.96082.876-1.88151,1.27109-2.84323,0.14406-.35071.24169-0.87965,0.73837-0.81444a0.8645,0.8645,0,0,1,.55694.94244A0.62517,0.62517,0,0,0-111.6902,49.548Z" transform="translate(169.65276 -4.88737)" style="fill:#858686"/><path d="M-114.77274,22.411a1.4872,1.4872,0,0,0-1.35431-1.16445,2.742,2.742,0,0,1-1.19006-.50844c-0.47261-.37337-1.422-0.6776-0.96091-1.375a1.63655,1.63655,0,0,1,2.14513-.35266,21.77407,21.77407,0,0,1,2.59168,1.6909,3.11337,3.11337,0,0,0,2.653.71212c0.93469,0.40272.67219,1.36272,0.88157,2.06329a3.62464,3.62464,0,0,0,1.231,2.09773,2.334,2.334,0,0,1,.73933,1.81478,5.75251,5.75251,0,0,1,.22663.7842c0.09122,0.5122.39374,1.14405-.14074,1.51928a1.209,1.209,0,0,1-1.57606-.3552,1.194,1.194,0,0,1-.24011-0.51573,9.31192,9.31192,0,0,0-.32511-1.86206c-0.19366-.65327-0.33352-1.1854-1.24406-1.00771a1.271,1.271,0,0,1-1.12443-.76295,2.708,2.708,0,0,0-1.4939-1.80149,1.92542,1.92542,0,0,1-.27445-0.18122A1.2963,1.2963,0,0,1-114.77274,22.411Z" transform="translate(169.65276 -4.88737)" style="fill:#2a2a2a"/><path d="M-111.6902,49.548c-0.33494-.29536-0.22615-0.85506-0.7464-1.146-0.61894,1.34942-1.2784,2.67862-1.83387,4.04995a1.41318,1.41318,0,0,1-1.12773.98758c-1.20928.31823-2.59578,0.53071-2.56717,2.38321,0.013,0.83927-.96415,1.09359-1.642,1.335a1.14759,1.14759,0,0,1-1.52427-.54095,15.53,15.53,0,0,1-1.15542-1.64275c-0.24709-.59282-0.0232-0.81182.52531-0.885,0.53635,0.486.586,1.55523,1.69729,1.35509,1.07938-.19438,1.1986-1.13382,1.56242-1.8956,0.27515-.57612.18228-1.25107,0.49894-1.81448,1.071,0.13126,1.42465-.49238,1.57505-1.42a3.7456,3.7456,0,0,1,.8208-2.41731,0.93364,0.93364,0,0,0-.04972-1.0139,5.71273,5.71273,0,0,1-.56057-1.30413,1.05717,1.05717,0,0,1,.27764-0.8338,0.84164,0.84164,0,0,1,.31371-0.19141,0.78653,0.78653,0,0,1,.8517.19281,1.79051,1.79051,0,0,0,.02529,1.92784,4.20638,4.20638,0,0,1,.45768,1.91379,0.95427,0.95427,0,0,0,.83382-0.20045C-111.84482,47.51161-111.77426,47.55625-111.6902,49.548Z" transform="translate(169.65276 -4.88737)" style="fill:#bcbcbc"/><path d="M-109.50639,29.13162c0.21281,0.108.42308,0.22145,0.63888,0.32315,0.83961,0.39569,1.09823.02726,1.00632-.778-0.04911-.43022-0.11618-0.8584-0.17516-1.28752a11.821,11.821,0,0,1,.82855,6.45385,20.31818,20.31818,0,0,0-.40221,2.44473,5.25178,5.25178,0,0,1-1.64463,3.20253c0.00974-.89423.6337-1.6417,0.50277-2.61082-0.09841-.72844-0.21644-1.08086-1.02772-1.04307-0.69232.03224-1.30233-.00383-1.18572,0.97508a1.17759,1.17759,0,0,1-.36612,1.19665,1.0721,1.0721,0,0,1-1.05777.39143c-0.4178-.19726-0.0407-0.57421.00757-0.8407,0.29624-1.63548-.24625-2.73469-1.90429-3.18506a1.11585,1.11585,0,0,1,.9633-0.17965,2.41841,2.41841,0,0,1,.31954.07523c0.35364,0.12014.7321,0.11739,1.09139,0.20837a0.74007,0.74007,0,0,0,1.01654-.28622c0.17765-.48964.19966-1.02,0.41544-1.49646a0.85766,0.85766,0,0,1,.599-0.67908,0.85659,0.85659,0,0,1,.74491.67921,4.61347,4.61347,0,0,1,.24306.79378c0.29727-1.38624.59616-2.72425-.62649-3.818A0.37387,0.37387,0,0,1-109.50639,29.13162Z" transform="translate(169.65276 -4.88737)" style="fill:#525353"/><path d="M-124.39081,90.57185a1.40787,1.40787,0,0,1,.1455-1.45456,3.15316,3.15316,0,0,0,.33788-1.36833c-0.026-.56746-0.10095-1.21586.8531-0.86185a0.48876,0.48876,0,0,0,.55646-0.34615,7.048,7.048,0,0,0,.75222-1.34383c0.1759-.54475.37457-1.41746,1.04493-1.18381a1.6885,1.6885,0,0,1,1.06309,1.92557,20.4812,20.4812,0,0,1-.69151,2.26573,3.61282,3.61282,0,0,0-.42167,1.34493c0.20856,1.488-.632,1.63-1.745,1.52995A5.14171,5.14171,0,0,1-124.39081,90.57185Z" transform="translate(169.65276 -4.88737)" style="fill:#868686"/><path d="M-113.81062,41.16848l0.69281-.29476c2.221-.79664,2.221-0.79663,1.9819,1.61312a0.67923,0.67923,0,0,0,.0461.30477,5.63135,5.63135,0,0,0,1.09031-1.18059l0.22833-.25378c0.36442,1.98064-.17439,2.704-2.15019,2.88649a5.903,5.903,0,0,1-1.8999.27667,2.51647,2.51647,0,0,1-1.03375.0916,0.32882,0.32882,0,0,1-.25887-0.169c0.107-.65253-0.77473-0.6308-0.81441-1.18707C-115.7512,42.02348-114.56348,41.81681-113.81062,41.16848Z" transform="translate(169.65276 -4.88737)" style="fill:#838384"/><path d="M-100.1565,87.43553c0.00014,0.31935.01584,0.63969-.0038,0.95785-0.025.4052,0.14992,1.01528-.54872,0.94079a1.03661,1.03661,0,0,1-1.155-.91663c-0.34679-2.07618.09087-4.22646-.641-6.25967-0.11728-.32583-0.00308-0.75615.41416-0.6501,0.51073,0.12983,1.37474-.11494,1.424.72316A49.77625,49.77625,0,0,1-100.1565,87.43553Z" transform="translate(169.65276 -4.88737)" style="fill:#c2c0c0"/><path d="M-134.01986,86.757c0.2494-.73728.30742-1.545,1.19331-1.9472,1.08766-.49382,2.5102-0.24927,2.89169.61455a2.10052,2.10052,0,0,1-1.1923,3.00134l-0.70358-.25125C-132.5633,87.7064-133.61835,87.73641-134.01986,86.757Z" transform="translate(169.65276 -4.88737)" style="fill:#5e5f5e"/><path d="M-138.322,26.25078l0.01942,8.864a5.82961,5.82961,0,0,1,.41935,6.07349,1.62627,1.62627,0,0,0,.33646,1.65626,4.14387,4.14387,0,0,1,.64282,2.90117l-0.66225-.7822a3.69739,3.69739,0,0,1-1.19929-2.17983,15.83238,15.83238,0,0,1,.01145-6.3771,6.48223,6.48223,0,0,0,.18236-1.40439c-0.01945-2.59215-.0168-5.18453-0.007-7.77678A0.91062,0.91062,0,0,1-138.322,26.25078Z" transform="translate(169.65276 -4.88737)" style="fill:#9e9d9e"/><path d="M-111.9267,82.43187a0.97245,0.97245,0,0,1-.24484-0.92744c-0.22367-1.88213-.02916-3.77186-0.10788-5.65609a1.20645,1.20645,0,0,0-.18438-1.09927,1.11371,1.11371,0,0,1-.187-0.92639c-0.3092-.95529.13607-1.97272-0.24071-2.92244l0.00722,0.01194a2.75651,2.75651,0,0,1,.02222-1.724c0.32795,0.76022.6367,1.52955,0.9912,2.27718a1.214,1.214,0,0,1-.00248,1.249,1.89671,1.89671,0,0,0,.2611,2.217c0.70651,1.055,1.45474,2.08218,2.15176,3.14319,0.21727,0.33073.69756,0.77082,0.2001,1.12025a0.78381,0.78381,0,0,1-1.20033-.38344c-0.49144-1.15459-.84336-0.35829-1.12187.10074C-112.25328,80.01748-111.765,81.2612-111.9267,82.43187Z" transform="translate(169.65276 -4.88737)" style="fill:#c3c3c3"/><path d="M-136.904,45.74573a6.485,6.485,0,0,0-1.35418-3.46014,0.70733,0.70733,0,0,1-.11337-0.96011A5.635,5.635,0,0,0-138.205,35.574a2.06252,2.06252,0,0,1-.0976-0.45919c1.517,1.43563,1.57195,3.27032,1.242,5.116a5.12963,5.12963,0,0,0,.15413,3.4514c0.45821,0.91462.28137,2.00417,0.47267,3.00328A1.87976,1.87976,0,0,1-136.904,45.74573Z" transform="translate(169.65276 -4.88737)" style="fill:#8b8a8a"/><path d="M-111.44062,20.50112a1.36965,1.36965,0,0,1-1.99944-.45231c-0.41778-.51906-0.90306-0.98379-1.35827-1.47272a1.42584,1.42584,0,0,1,.00107-1.19526A4.79387,4.79387,0,0,1-111.44062,20.50112Z" transform="translate(169.65276 -4.88737)" style="fill:#7c7c7c"/><path d="M-111.92135,44.24373c0.20614-.09873.4067-0.21194,0.61934-0.29379a2.0689,2.0689,0,0,0,1.53085-2.5927,1.40609,1.40609,0,0,1,.4806-0.96368,12.87813,12.87813,0,0,0-.20929,3.551c0.04089,0.80514-.578,1.19231-0.92284,1.74494-0.22739.36437-.45934,0.08391-0.62688-0.16844C-111.33469,45.09165-111.6302,44.66914-111.92135,44.24373Z" transform="translate(169.65276 -4.88737)" style="fill:#bababa"/><path d="M-134.01986,86.757c0.57133,0.71707,1.57629.76442,2.18911,1.41743-1.82283-.35519-3.22032-1.57232-4.82051-2.37872a1.01272,1.01272,0,0,0,.9382-1.24507c-0.03606-.23379-0.34538-0.5725.1374-0.63421a0.57,0.57,0,0,1,.61425.68762,2.974,2.974,0,0,0,.34425,1.81763A0.82352,0.82352,0,0,0-134.01986,86.757Z" transform="translate(169.65276 -4.88737)" style="fill:#adacac"/><path d="M-140.24614,81.48384a19.05564,19.05564,0,0,1,1.70725,3.08243c-1.02036-1.885-3.14032-2.44274-4.59324-3.80563A3.2222,3.2222,0,0,1-140.24614,81.48384Z" transform="translate(169.65276 -4.88737)" style="fill:#c2c1c0"/><path d="M-117.68966,73.28891c-0.10767,1.58789.063,3.22874-.96191,4.633a2.55827,2.55827,0,0,0-.20508,1.614c-0.47324-.41542-0.167-0.97263-0.26477-1.4565Q-118.40559,75.684-117.68966,73.28891Z" transform="translate(169.65276 -4.88737)" style="fill:#b5b4b4"/><path d="M-104.81946,66.10965c0.0705,0.49426-.19472.48894-0.49711,0.39244a3.21071,3.21071,0,0,1-1.64808-1.62346c-0.17448-.28153-0.00695-0.43042.30484-0.42551A2.27593,2.27593,0,0,1-104.81946,66.10965Z" transform="translate(169.65276 -4.88737)" style="fill:#c3c3c3"/><path d="M-119.57522,60.34687a6.85957,6.85957,0,0,0,2.655-2.209,2.84832,2.84832,0,0,1,1.65079-1.39727,14.46043,14.46043,0,0,1-3.84619,3.83292,7.92773,7.92773,0,0,1-1.18923.51387l-0.01425-.27911C-120.29243,60.29761-120.00673,60.2047-119.57522,60.34687Z" transform="translate(169.65276 -4.88737)" style="fill:#959595"/><path d="M-140.24614,81.48384q-1.443-.36166-2.886-0.72326a2.341,2.341,0,0,1-1.17017-.99394,5.03087,5.03087,0,0,0,2.89309.76758,1.26325,1.26325,0,0,1,1.17888.67009Z" transform="translate(169.65276 -4.88737)" style="fill:#8a8a8a"/><path d="M-110.73756,67.06734a1.08113,1.08113,0,0,1,.115-1.48966c0.24482-.27458.37264,0.09489,0.508,0.25256a0.86919,0.86919,0,0,1-.09871,1.48408C-110.49788,67.46513-110.57846,67.1829-110.73756,67.06734Z" transform="translate(169.65276 -4.88737)" style="fill:#c8c8c7"/><path d="M-112.8621,69.18816q-0.01106.86193-.02217,1.72395a14.85582,14.85582,0,0,1-.51245-3.825A4.39923,4.39923,0,0,1-112.8621,69.18816Z" transform="translate(169.65276 -4.88737)" style="fill:#c3c2c2"/><path d="M-114.79727,17.38082q-0.0005.59766-.001,1.19529c-0.25749-.58553-0.339-1.31975-1.18786-1.40536A1.36965,1.36965,0,0,1-114.79727,17.38082Z" transform="translate(169.65276 -4.88737)" style="fill:#595958"/><path d="M-115.06459,44.4583q0.62164,0.031,1.24332.062a1.14467,1.14467,0,0,1-.95339.22591q-0.48834-.00332-0.977-0.00677a0.26488,0.26488,0,0,1,.02776-0.31759A0.54135,0.54135,0,0,1-115.06459,44.4583Z" transform="translate(169.65276 -4.88737)" style="fill:#babab9"/><path d="M-119.57522,60.34687q-0.3719.23073-.74383,0.4614-1.32671.22518-2.65339,0.45044c-0.62949-.23463-1.31119.07529-1.93815-0.18581l-0.443-.03772a0.13868,0.13868,0,0,1-.05512-0.15508,0.09724,0.09724,0,0,1,.05785-0.07652c0.96621-.10084,1.994.33048,2.89488-0.33083,0.2703-.19842.74092-0.27286,0.60334-0.75873a1.37986,1.37986,0,0,0-.80012-0.98574,1.08132,1.08132,0,0,0-.58553-0.06428c-2.75319.60654-3.38143-1.7145-4.50679-3.3034a8.9851,8.9851,0,0,1-.75733-1.744c-0.45017-1.06989-3.38117-1.98615-4.35191-1.34512a1.683,1.683,0,0,0-.33613.45843,0.48777,0.48777,0,0,1-.19255-0.14506c-0.05328-1.17352.35828-2.50006-1.25357-3.10795a1.30185,1.30185,0,0,1-.22509-1.42456c0.93909-1.09292.39827-2.06012-.04975-3.07848a1.6613,1.6613,0,0,1-.05884-0.47186,0.46863,0.46863,0,0,1,.35791-0.0916c1.60639,0.46191,1.81952,1.86141,2.10615,3.18706a2.7184,2.7184,0,0,0,.55965,1.66111,1.78494,1.78494,0,0,0,.2687-1.41236c0.07251-2.04812.32251-2.28112,2.25506-2.95083,2.87721-.99707,5.21894-0.07561,7.35684,1.80942,0.14363,1.2575.04111,1.4008-1.30956,1.83922-1.09989.16388-2.15029-.33653-3.24454-0.26981,0.97681-.06348,1.90346.31513,2.86939,0.341,0.473,0.19456,1.11495.3186,1.0915,0.94047a1.395,1.395,0,0,1-1.17539,1.05913,5.30249,5.30249,0,0,1-2.491.12261,7.49824,7.49824,0,0,0-.94924-0.12862c-0.40206.00865-.86188-0.00171-0.92865,0.52935a1.03869,1.03869,0,0,0,.60557.96373c0.44779,0.297.58986-.06687,0.82846-0.35782,1.12859-1.37614,4.11095-.92682,5.01244.7358-0.00257.06036-.00558,0.12077-0.0086,0.18119-0.534,1.2039-1.8599,1.37145-2.883,2.13677a10.70621,10.70621,0,0,1,3.10455,2.96467,1.33687,1.33687,0,0,0,1.30315.4143,1.376,1.376,0,0,1,1.40941.43281c0.3731,0.61582-.36313.87391-0.499,1.33346A1.82437,1.82437,0,0,1-119.57522,60.34687Z" transform="translate(169.65276 -4.88737)" style="fill:#515151"/><path d="M-122.26234,46.6684c-1.3696-.606-2.52182-1.63332-4.09887-1.85864-1.59695-.22817-2.97461.41439-4.382,0.884-0.62866.20978-.54337,1.08173-0.5995,1.69457-0.06171.67379-.0122,1.35706-0.03926,2.03509a0.47732,0.47732,0,0,1-.42516.49905,0.4588,0.4588,0,0,1-.46027-0.314,3.56837,3.56837,0,0,1-.53725-1.563,3.68772,3.68772,0,0,0-1.925-3.54715,9.09517,9.09517,0,0,1-.93652-3.88392,0.58442,0.58442,0,0,1,.33949-0.68373,0.70241,0.70241,0,0,1,.60574.49316c1.11517,1.5799,2.84914,2.09155,4.56072,2.64186,0.80569,0.206,1.63332.29771,2.44994,0.43968,1.68256,0.29252,4.26311-1.71609,4.43433-3.41849a2.96478,2.96478,0,0,1,.42724-1.59214c0.24052-.3143.50071-0.7882,1.01805-0.31651-0.02273,1.77842-.16325,3.55618-0.04936,5.333a7.61876,7.61876,0,0,1-.03312,3.06405A0.23417,0.23417,0,0,1-122.26234,46.6684Z" transform="translate(169.65276 -4.88737)" style="fill:#858585"/><path d="M-113.15232,34.46063q-0.56681-.04336-1.1336-0.08675-1.31635-.11593-2.6327-0.23183c-1.53249-.683-3.20173-0.43323-4.79485-0.70275a1.29746,1.29746,0,0,1-.2612-0.26628,9.645,9.645,0,0,0-1.2349-1.60345,1.84323,1.84323,0,0,1-.0961-2.50411,2.06181,2.06181,0,0,0,.51172-1.41931,8.651,8.651,0,0,1,.53221-3.28076,1.31688,1.31688,0,0,1,.15628-0.33852,4.39977,4.39977,0,0,1,1.35551-.95265c1.20561-.68831,2.382-1.49163,3.89-0.95212,0.28785,0.103.65694,0.08665,0.66954,0.53007a1.38267,1.38267,0,0,1-1.11426.31475,4.09367,4.09367,0,0,0-3.81,2.79259,1.34729,1.34729,0,0,0,.02313,1.37317,7.87369,7.87369,0,0,1,.92065,2.45247c0.73564,2.6564,2.19093,3.83539,4.96616,4.03285a5.10332,5.10332,0,0,1,1.64357.2845C-113.33476,33.99743-112.965,34.04033-113.15232,34.46063Z" transform="translate(169.65276 -4.88737)" style="fill:#b2b1b1"/><path d="M-120.80467,38.51693l-0.11845.01366-0.11546-.02979a3.36917,3.36917,0,0,1-.93616-0.45953,1.6737,1.6737,0,0,0-.97359,1.74481c0.0758,1.50708-.84166,2.26629-1.95387,3.09241-1.78441,1.32541-3.47327,1.07256-5.258.18717,0.47791-.00133.95718-0.02661,1.43355,0.00007a4.42533,4.42533,0,0,0,4.48221-2.707,18.49411,18.49411,0,0,1,1.3933-2.35684,1.21749,1.21749,0,0,1,1.28556-.66346A0.97934,0.97934,0,0,1-120.80467,38.51693Z" transform="translate(169.65276 -4.88737)" style="fill:#565756"/><path d="M-134.22827,30.10049a1.46835,1.46835,0,0,1,2.32112-.81479,7.03223,7.03223,0,0,0,1.84277.35127,0.34113,0.34113,0,0,1,.33636.3947,0.31609,0.31609,0,0,1-.32729.28321,3.28378,3.28378,0,0,0-1.826,1.02533,2.9612,2.9612,0,0,1-2.31851.6568Q-134.21388,31.04865-134.22827,30.10049Z" transform="translate(169.65276 -4.88737)" style="fill:#767676"/><path d="M-119.376,43.06827a6.2172,6.2172,0,0,1-.95882-3.60788,1.6855,1.6855,0,0,0,1.76467,1.42259c0.91972,0.09726.768,0.61986,0.24293,0.972-0.97744.65552-.0968,1.085,0.15559,1.501,0.43149,0.71127.83755,0.2063,1.20935-.16032a1.43033,1.43033,0,0,1,.96706-0.6232,2.66337,2.66337,0,0,0,.226.72225c0.26706,0.15453.53115,0.31449,0.80183,0.4624,0.46863,0.25607.16545,0.369-.08688,0.49425a5.74368,5.74368,0,0,1-2.20557.31766A2.321,2.321,0,0,1-119.376,43.06827Z" transform="translate(169.65276 -4.88737)" style="fill:#525252"/><path d="M-125.35081,60.80358q-0.003.11593-.00274,0.23176a15.88858,15.88858,0,0,1-6.52873-2.78934,0.80782,0.80782,0,0,1-.40807-0.80093A29.17883,29.17883,0,0,0-125.35081,60.80358Z" transform="translate(169.65276 -4.88737)" style="fill:#535353"/><path d="M-109.99949,41.611c0.09262,0.94041-.72394,1.23461-1.31563,1.9229a3.43461,3.43461,0,0,1-.02986-1.846,0.99407,0.99407,0,0,0-.0247-1.11056,1.35958,1.35958,0,0,0-1.00741.19449c-0.24409.04863-.44841,0.40618-0.74069,0.102,1.5519-1.01688,1.64177-1.00364,2.631.45219A0.60154,0.60154,0,0,0-109.99949,41.611Z" transform="translate(169.65276 -4.88737)" style="fill:#666"/><path d="M-134.7209,40.42384c-0.35579-.23645-0.735-0.67178-0.72649.26119a4.74822,4.74822,0,0,0,.425,2.19858,2.723,2.723,0,0,1,.29292,1.61472l-0.24057.00364a4.31207,4.31207,0,0,1-.7224-2.39264c-0.27668-.70436.09384-1.47276-0.21514-2.17392l0.00691-1.42752q0.10582-.17568.22089-0.00592Z" transform="translate(169.65276 -4.88737)" style="fill:#525252"/><path d="M-132.53,57.18783a4.90008,4.90008,0,0,1-2.19928-3.56108A13.83215,13.83215,0,0,1-132.53,57.18783Z" transform="translate(169.65276 -4.88737)" style="fill:#525252"/><path d="M-115.76924,43.2947a0.4338,0.4338,0,0,1-.226-0.7222,3.09927,3.09927,0,0,1,2.18455-1.40415C-114.21575,42.10543-115.52864,42.20618-115.76924,43.2947Z" transform="translate(169.65276 -4.88737)" style="fill:#545454"/><path d="M-135.90761,39.93542c0.44907,0.68721.13781,1.44976,0.21529,2.17385C-136.14285,41.42217-135.83891,40.66036-135.90761,39.93542Z" transform="translate(169.65276 -4.88737)" style="fill:#3e3e3f"/><path d="M-135.67981,38.502q-0.11067-.00008-0.221.00582a1.73922,1.73922,0,0,1,.10332-1.00707A1.739,1.739,0,0,1-135.67981,38.502Z" transform="translate(169.65276 -4.88737)" style="fill:#3e3e3f"/><path d="M-143.37653,68.69831a4.25785,4.25785,0,0,1,1.473-2.97132c0.42035-.45025.675-0.25685,0.86164,0.21648a6.66453,6.66453,0,0,1-1.09343,3.48776,1.53719,1.53719,0,0,1-.96591.362C-143.63719,69.59287-143.19742,69.00748-143.37653,68.69831Z" transform="translate(169.65276 -4.88737)" style="fill:#343434"/><path d="M-139.28666,63.49961a0.61325,0.61325,0,0,1,.66749.66558c0.04368,0.70481-.64394.70778-1.06885,0.89387-0.40978.17946-.52931-0.156-0.5469-0.52066A1.05128,1.05128,0,0,1-139.28666,63.49961Z" transform="translate(169.65276 -4.88737)" style="fill:#383837"/><path d="M-116.73852,75.37273a2.97089,2.97089,0,0,1,.29705-0.68906c1.204-1.361,1.27416-2.99214,1.17964-4.68141-0.01912-.34173-0.22023-0.93169.37589-0.94562a1.267,1.267,0,0,1,1.25292.74525C-112.969,71.49838-114.76363,74.86227-116.73852,75.37273Z" transform="translate(169.65276 -4.88737)" style="fill:#626262"/><path d="M-112.46381,74.74907a0.8336,0.8336,0,0,1,.305.94275c0.00316,1.93736-.007,3.87474-0.01268,5.81236-0.46573-.905-0.16812-1.87328-0.21583-2.81052C-112.45412,77.3809-112.4421,76.06413-112.46381,74.74907Z" transform="translate(169.65276 -4.88737)" style="fill:#c3c2c2"/><path d="M-112.89154,70.90024c0.55257,0.935.131,1.95037,0.24078,2.92217C-113.12568,72.881-112.755,71.86975-112.89154,70.90024Z" transform="translate(169.65276 -4.88737)" style="fill:#c3c2c2"/><path d="M-125.35443,69.69936c0.331,0.02008.83663-.033,0.63608,0.48788-0.17724.46033-.578,0.09677-0.878-0.007C-125.74558,69.9043-125.48667,69.83369-125.35443,69.69936Z" transform="translate(169.65276 -4.88737)" style="fill:#686868"/><path d="M-147.179,72.84006c-0.18032.17917-.4385,0.48011-0.62168,0.22124a0.67636,0.67636,0,0,1,.34906-0.74054A0.57591,0.57591,0,0,0-147.179,72.84006Z" transform="translate(169.65276 -4.88737)" style="fill:#949494"/><path d="M-125.35443,69.69936l-0.24188.48084-0.53041-.11106A0.93679,0.93679,0,0,1-125.35443,69.69936Z" transform="translate(169.65276 -4.88737)" style="fill:#706f70"/><path d="M-121.77811,33.22378a0.87247,0.87247,0,0,1,.06452.21557c-1.5702-.79525-3.48191-1.0359-4.35348-2.93451-0.40418-.88046-0.7444-1.57169.38146-2.1349,0.72362-.362.85665-1.18136,1.26184-1.794a11.58,11.58,0,0,1,3.15981-3.66976,0.29827,0.29827,0,0,1,.06266.28242c-0.18555.37225-.60637,0.53427-0.80342,0.897l-0.00416.00581a4.0392,4.0392,0,0,1-1.10951,1.659,3.71756,3.71756,0,0,0-1.01719,1.58705,2.68622,2.68622,0,0,1-1.03662,1.41387,0.99338,0.99338,0,0,0-.24174,1.60659,3.41354,3.41354,0,0,0,2.04756,1.68728A2.6283,2.6283,0,0,1-121.77811,33.22378Z" transform="translate(169.65276 -4.88737)" style="fill:#626261"/><path d="M-121.27418,23.13813q0.002-.11618.01011-0.232,0.35492-.2438.70961-0.48779c0.75962-.484.07916-1.33945,0.49329-1.91258a10.29984,10.29984,0,0,1,4.07485,1.65763,0.84284,0.84284,0,0,1-.90039.1099c-1.53045-.59329-2.66287.26629-3.84689,0.96992A0.61327,0.61327,0,0,1-121.27418,23.13813Z" transform="translate(169.65276 -4.88737)" style="fill:#737373"/><path d="M-120.80841,23.13224c1.41876-1.26159,3.09052-1.26384,4.82206-.96879q0.4408,0.14094.88154,0.282a3.42751,3.42751,0,0,1,1.00493.72333l0.00671-.01352c0.35227,0.38718,1.19712.41558,0.91925,1.26216a4.46691,4.46691,0,0,1-3.05954-1.76255,3.361,3.361,0,0,0-3.3374.08624,2.15315,2.15315,0,0,1-1.24693.6246,0.12757,0.12757,0,0,1-.06407-0.15848A0.1071,0.1071,0,0,1-120.80841,23.13224Z" transform="translate(169.65276 -4.88737)" style="fill:#a4a3a3"/><path d="M-120.06117,20.50576c-0.22678.62144,0.47495,1.48237-.4933,1.91257C-120.05658,21.86681-120.60359,21.04579-120.06117,20.50576Z" transform="translate(169.65276 -4.88737)" style="fill:#626261"/><path d="M-114.09988,23.16878a1.79988,1.79988,0,0,1-1.00458-.72342l0.33153-.0343A1.23983,1.23983,0,0,1-114.09988,23.16878Z" transform="translate(169.65276 -4.88737)" style="fill:#595958"/><path d="M-124.91059,61.0729a3.81281,3.81281,0,0,1,1.93837.18607A3.06777,3.06777,0,0,1-124.91059,61.0729Z" transform="translate(169.65276 -4.88737)" style="fill:#535353"/><path d="M-121.75479,51.69833a1.24084,1.24084,0,0,1,.25837,1.96615,1.1746,1.1746,0,0,0-.269-1.00345l0.00376,0.00663A0.85922,0.85922,0,0,1-121.75479,51.69833Z" transform="translate(169.65276 -4.88737)" style="fill:#878787"/><path d="M-109.50639,29.13162c1.68452,1.50635,1.20249,3.32439.79434,5.25467-0.72636-.64533-0.35219-1.71359-1.11925-2.22021-0.69278.61252-.42994,1.574-0.88505,2.25118-0.60793-.81694-0.29724-1.76193-0.35267-2.65143a12.4317,12.4317,0,0,1,.03325-2.02108,1.62587,1.62587,0,0,0-.37-2.1058,0.485,0.485,0,0,1-.00708-0.73942c1.3321,0.03322,1.64893.33686,1.86692,1.78789Z" transform="translate(169.65276 -4.88737)" style="fill:gray"/><path d="M-109.54593,28.68743a2.00562,2.00562,0,0,0-1.91384-1.67824,2.53143,2.53143,0,0,1-1.069-1.74219,0.37555,0.37555,0,0,1,.19143-0.25728c0.486,0.39111.82693,1.15337,1.67329,0.527,0.30849-.22831.54285,0.17148,0.57716,0.39151C-109.94225,26.85595-109.33365,27.69362-109.54593,28.68743Z" transform="translate(169.65276 -4.88737)" style="fill:#4d4d4d"/><path d="M-113.13942,24.3568c-0.05439-.60966-0.76644-0.69738-0.95369-1.20158A1.95681,1.95681,0,0,1-112.33773,25.01l-0.11584.09266a1.07486,1.07486,0,0,1-.70911-0.47372A0.24937,0.24937,0,0,1-113.13942,24.3568Z" transform="translate(169.65276 -4.88737)" style="fill:#4d4d4d"/><path d="M-117.88051,51.67144c-0.38277-1.47728-1.00753-1.80115-3.14113-1.62831a0.648,0.648,0,0,1-.7336.02005c0.27879-.98256,1.29022-0.534,1.85634-0.95414,1.74305-.46242,1.82242-0.54383,1.32916-2.30213a27.85015,27.85015,0,0,0-.5592-2.7771q-0.1235-.48077-0.247-0.96155a3.35034,3.35034,0,0,0,1.9113,1.20217c0.54582,0.30489,1.2-.10679,1.73606.26242q-0.00927.10354-.02307,0.20658l-0.00223.00126c-0.70147.03836-.39232,0.42028-0.25306,0.74444a6.8013,6.8013,0,0,0,.68312,1.37067c0.15858,0.59807.50674,1.16612-.34768,1.6121-0.59379.30993-.21616,1.033-0.36251,1.55137-0.12947.45858-.23517,0.92638-0.40086,1.3717C-116.75343,52.247-117.22893,52.4537-117.88051,51.67144Z" transform="translate(169.65276 -4.88737)" style="fill:#858586"/><path d="M-116.007,45.48514c-0.35676-.3981-0.60786-0.76028.25306-0.74446Z" transform="translate(169.65276 -4.88737)" style="fill:#babab9"/><path d="M-113.14527,34.46423a1.16066,1.16066,0,0,1,1.20642.23572A1.55623,1.55623,0,0,1-113.14527,34.46423Z" transform="translate(169.65276 -4.88737)" style="fill:#b2b1b1"/><path d="M-115.72862,44.53286c-0.56641-.16752-1.21349.19807-1.73581-0.26251q1.205-.00936,2.41029-0.01895-0.00017.10374-.01039,0.207Q-115.39664,44.49554-115.72862,44.53286Z" transform="translate(169.65276 -4.88737)" style="fill:#545454"/><path d="M-119.83346,49.29254c-0.50723.59418-1.36535,0.26-1.921,0.72609-0.27036.5448-.87583,1.09834,0.042,1.61219l-0.04233.06752q-0.0034.4846-.00684,0.96926c-0.91786-1.49781-2.77927-1.61466-4.35967-1.20556a0.57235,0.57235,0,0,0-.44.47951c-0.10881.36424-.06876,1.04779-0.71389,0.76638a1.95385,1.95385,0,0,1-1.41831-1.75269c0.00888-.61139.6018-0.68421,1.07337-0.70381a27.23033,27.23033,0,0,0,2.71837.25464,2.79417,2.79417,0,0,0,1.04966-.16324,1.61261,1.61261,0,0,0,.98707-0.77738c0.0828-.4456-0.62043-0.38231-0.82633-0.72435-0.15227-.28586.13271-0.36694,0.24722-0.52786,0.8407-.22733,1.46-0.61376,1.182-1.64491l0.27266-.01158a0.53169,0.53169,0,0,1,.64857.40023A4.96572,4.96572,0,0,0-119.83346,49.29254Z" transform="translate(169.65276 -4.88737)" style="fill:#858585"/><path d="M-122.52336,52.53508c-0.64894.58948-1.17012,1.08276-1.90273,0.35838a0.59042,0.59042,0,0,1-.35251-0.554,0.51478,0.51478,0,0,1,.653-0.37832A3.021,3.021,0,0,1-122.52336,52.53508Z" transform="translate(169.65276 -4.88737)" style="fill:#323232"/><path d="M-128.7696,46.98808a0.9438,0.9438,0,0,1,1.24548-1.0392c0.34566,0.02521.57607,0.26121,0.44344,0.54611C-127.46631,47.32337-128.19373,46.66236-128.7696,46.98808Z" transform="translate(169.65276 -4.88737)" style="fill:#363535"/><path d="M-123.4442,48.31325l-0.24708.5277a12.405,12.405,0,0,1-3.24828-.59372C-125.64609,47.802-124.55737,48.48362-123.4442,48.31325Z" transform="translate(169.65276 -4.88737)" style="fill:#7c7c7c"/><path d="M-119.83346,49.29254c-0.76195-.32394-1.67576-0.46143-1.52339-1.68456a2.20742,2.20742,0,0,0-.63272-0.95121c-0.08265-1.083-.2233-2.16541-0.235-3.24919a23.23877,23.23877,0,0,1,.2497-5.3664,1.08462,1.08462,0,0,1,.93625.45963c-0.60549-.0595-0.73727.27835-0.7275,0.80412,0.02078,1.11756-.02609,2.237.01646,3.35336a3.45218,3.45218,0,0,0,2.133,2.7938c0.37372,0.13295.5213,0.0473,0.5078-.34482-0.01236-.359-0.01372-0.71834-0.02-1.0775a10.31608,10.31608,0,0,1,1.1456,4.15344C-117.892,49.2001-118.99417,49.26554-119.83346,49.29254Z" transform="translate(169.65276 -4.88737)" style="fill:#b5b5b5"/><path d="M-121.77811,33.22378a24.81065,24.81065,0,0,0-2.54277-1.26077c-1.03195-.43033-1.42215-1.51931-1.82466-2.50643-0.14694-.36036.20065-0.4362,0.39628-0.61978a2.66674,2.66674,0,0,0,1.1439-1.14977c0.38175-1.55153,1.66393-2.446,2.59657-3.59553a17.60209,17.60209,0,0,0-.48318,4.351,0.83751,0.83751,0,0,1-.41454.67749,1.48843,1.48843,0,0,0-.08332,2.26263A3.00871,3.00871,0,0,1-121.77811,33.22378Z" transform="translate(169.65276 -4.88737)" style="fill:#797979"/><path d="M-120.80841,23.13224q-0.00143.11695-.00918,0.23357-0.59368.3599-1.18706,0.71992a1.13354,1.13354,0,0,1,.73047-0.9476Z" transform="translate(169.65276 -4.88737)" style="fill:#797979"/><path d="M-121.71246,51.63081a0.9655,0.9655,0,0,1-1.00594-.7713c-0.0845-.51979.73768-0.41669,0.96394-0.8409q0.36638,0.01215.73279,0.0244A2.10749,2.10749,0,0,0-121.71246,51.63081Z" transform="translate(169.65276 -4.88737)" style="fill:#b8b8b7"/><path d="M-110.7395,29.3911c-1.35045-1.35038-1.46006-3.29484-2.33339-4.87367a0.99784,0.99784,0,0,1,.61939.58517q0.49684,0.95328.99377,1.90653a0.80717,0.80717,0,0,0,.41521.69066C-110.09088,28.129-110.26605,28.72465-110.7395,29.3911Z" transform="translate(169.65276 -4.88737)" style="fill:#b4b4b4"/><path d="M-118.27029,49.64821c0.58772-.28261.94948,0.15554,1.4404,0.16906C-117.48726,50.61216-117.48726,50.61216-118.27029,49.64821Z" transform="translate(169.65276 -4.88737)" style="fill:#636363"/><path d="M-118.85382,46.60137c-0.2802.40309-.35525,1.22191-0.757,1.07332a1.90189,1.90189,0,0,1-.929-1.5236c-0.03547-.23919-0.08551-0.67676.33561-0.5788A1.99315,1.99315,0,0,1-118.85382,46.60137Z" transform="translate(169.65276 -4.88737)" style="fill:#979797"/></g></g></g></g></svg>